<svg width="580" height="332" viewBox="0 0 580 332" fill="none" xmlns="http://www.w3.org/2000/svg">
<path d="M525.855 170.826H491.248C490.903 170.826 490.571 170.688 490.327 170.444C490.082 170.2 489.945 169.868 489.945 169.522C489.945 169.177 490.082 168.845 490.327 168.601C490.571 168.357 490.903 168.219 491.248 168.219H525.855C526.201 168.219 526.532 168.357 526.776 168.601C527.021 168.845 527.158 169.177 527.158 169.522C527.158 169.868 527.021 170.2 526.776 170.444C526.532 170.688 526.201 170.826 525.855 170.826Z" fill="#88D5FF"/>
<path d="M525.855 179.584H491.248C490.903 179.584 490.571 179.446 490.327 179.202C490.082 178.957 489.945 178.626 489.945 178.28C489.945 177.935 490.082 177.603 490.327 177.359C490.571 177.114 490.903 176.977 491.248 176.977H525.855C526.201 176.977 526.532 177.114 526.776 177.359C527.021 177.603 527.158 177.935 527.158 178.28C527.158 178.626 527.021 178.957 526.776 179.202C526.532 179.446 526.201 179.584 525.855 179.584Z" fill="#88D5FF"/>
<path d="M525.855 188.341H491.248C490.903 188.341 490.571 188.204 490.327 187.96C490.082 187.715 489.945 187.384 489.945 187.038C489.945 186.692 490.082 186.361 490.327 186.117C490.571 185.872 490.903 185.735 491.248 185.735H525.855C526.201 185.735 526.532 185.872 526.776 186.117C527.021 186.361 527.158 186.692 527.158 187.038C527.158 187.384 527.021 187.715 526.776 187.96C526.532 188.204 526.201 188.341 525.855 188.341Z" fill="#88D5FF"/>
<path d="M202.664 324.084C290.167 324.084 361.102 253.134 361.102 165.612C361.102 78.0911 290.167 7.14111 202.664 7.14111C115.161 7.14111 44.2259 78.0911 44.2259 165.612C44.2259 253.134 115.161 324.084 202.664 324.084Z" fill="#D9EBFF"/>
<path d="M325.987 271.423H285.749V311.67H325.987V271.423Z" fill="#88D5FF"/>
<path d="M425.344 298.827C449.971 298.827 469.936 278.858 469.936 254.226C469.936 229.594 449.971 209.625 425.344 209.625C400.717 209.625 380.753 229.594 380.753 254.226C380.753 278.858 400.717 298.827 425.344 298.827Z" fill="#D9EBFF"/>
<path d="M444.538 139.503C483.053 139.503 514.275 108.274 514.275 69.7515C514.275 31.2288 483.053 0 444.538 0C406.024 0 374.802 31.2288 374.802 69.7515C374.802 108.274 406.024 139.503 444.538 139.503Z" fill="#D9EBFF"/>
<path d="M144.94 20.614H110.333C109.988 20.614 109.656 20.4767 109.412 20.2323C109.167 19.9879 109.03 19.6564 109.03 19.3108C109.03 18.9652 109.167 18.6337 109.412 18.3893C109.656 18.1449 109.988 18.0076 110.333 18.0076H144.94C145.285 18.0076 145.617 18.1449 145.861 18.3893C146.105 18.6337 146.243 18.9652 146.243 19.3108C146.243 19.6564 146.105 19.9879 145.861 20.2323C145.617 20.4767 145.285 20.614 144.94 20.614Z" fill="#88D5FF"/>
<path d="M144.94 29.3719H110.333C109.988 29.3719 109.656 29.2345 109.412 28.9901C109.167 28.7457 109.03 28.4143 109.03 28.0686C109.03 27.723 109.167 27.3915 109.412 27.1471C109.656 26.9027 109.988 26.7654 110.333 26.7654H144.94C145.285 26.7654 145.617 26.9027 145.861 27.1471C146.105 27.3915 146.243 27.723 146.243 28.0686C146.243 28.4143 146.105 28.7457 145.861 28.9901C145.617 29.2345 145.285 29.3719 144.94 29.3719Z" fill="#88D5FF"/>
<path d="M144.94 38.1297H110.333C109.988 38.1297 109.656 37.9924 109.412 37.748C109.167 37.5035 109.03 37.1721 109.03 36.8264C109.03 36.4808 109.167 36.1493 109.412 35.9049C109.656 35.6605 109.988 35.5232 110.333 35.5232H144.94C145.285 35.5232 145.617 35.6605 145.861 35.9049C146.105 36.1493 146.243 36.4808 146.243 36.8264C146.243 37.1721 146.105 37.5035 145.861 37.748C145.617 37.9924 145.285 38.1297 144.94 38.1297Z" fill="#88D5FF"/>
<path d="M525.855 33.6829H491.248C490.903 33.6829 490.571 33.5456 490.327 33.3012C490.082 33.0568 489.945 32.7253 489.945 32.3797C489.945 32.034 490.082 31.7025 490.327 31.4581C490.571 31.2137 490.903 31.0764 491.248 31.0764H525.855C526.201 31.0764 526.532 31.2137 526.776 31.4581C527.021 31.7025 527.158 32.034 527.158 32.3797C527.158 32.7253 527.021 33.0568 526.776 33.3012C526.532 33.5456 526.201 33.6829 525.855 33.6829Z" fill="#88D5FF"/>
<path d="M525.855 42.4407H491.248C490.903 42.4407 490.571 42.3034 490.327 42.059C490.082 41.8146 489.945 41.4831 489.945 41.1375C489.945 40.7918 490.082 40.4603 490.327 40.2159C490.571 39.9715 490.903 39.8342 491.248 39.8342H525.855C526.201 39.8342 526.532 39.9715 526.776 40.2159C527.021 40.4603 527.158 40.7918 527.158 41.1375C527.158 41.4831 527.021 41.8146 526.776 42.059C526.532 42.3034 526.201 42.4407 525.855 42.4407Z" fill="#88D5FF"/>
<path d="M525.855 51.1985H491.248C490.903 51.1985 490.571 51.0612 490.327 50.8168C490.082 50.5724 489.945 50.2409 489.945 49.8953C489.945 49.5496 490.082 49.2181 490.327 48.9737C490.571 48.7293 490.903 48.592 491.248 48.592H525.855C526.201 48.592 526.532 48.7293 526.776 48.9737C527.021 49.2181 527.158 49.5496 527.158 49.8953C527.158 50.2409 527.021 50.5724 526.776 50.8168C526.532 51.0612 526.201 51.1985 525.855 51.1985Z" fill="#88D5FF"/>
<path d="M554.124 324.181H0V332H554.124V324.181Z" fill="#72CDFF"/>
<path d="M285.749 309.063V274.03C285.749 273.338 285.474 272.675 284.985 272.187C284.497 271.698 283.834 271.423 283.143 271.423H275.846C275.155 271.423 274.492 271.698 274.003 272.187C273.515 272.675 273.24 273.338 273.24 274.03V321.574C273.24 322.265 273.515 322.928 274.003 323.417C274.492 323.906 275.155 324.181 275.846 324.181H323.381C324.072 324.181 324.735 323.906 325.223 323.417C325.712 322.928 325.987 322.265 325.987 321.574V314.276C325.987 313.585 325.712 312.922 325.223 312.433C324.735 311.944 324.072 311.67 323.381 311.67H288.354C288.012 311.67 287.673 311.602 287.357 311.471C287.041 311.34 286.754 311.148 286.512 310.906C286.27 310.664 286.078 310.377 285.947 310.061C285.816 309.744 285.749 309.405 285.749 309.063Z" fill="#72CDFF"/>
<path d="M312.122 311.669V324.181H349.754C350.445 324.181 351.108 323.906 351.597 323.417C352.085 322.928 352.36 322.265 352.36 321.574V314.276C352.36 313.585 352.085 312.922 351.597 312.433C351.108 311.944 350.445 311.669 349.754 311.669H312.122Z" fill="#88D5FF"/>
<path d="M400.489 103.859H179.507C176.628 103.859 174.295 106.193 174.295 109.072V266.21C174.295 269.089 176.628 271.423 179.507 271.423H400.489C403.368 271.423 405.701 269.089 405.701 266.21V109.072C405.701 106.193 403.368 103.859 400.489 103.859Z" fill="#72CDFF"/>
<path d="M400.489 272.726H179.506C177.779 272.724 176.123 272.037 174.902 270.815C173.681 269.594 172.994 267.938 172.992 266.21V109.071C172.994 107.344 173.681 105.687 174.902 104.466C176.123 103.244 177.779 102.557 179.506 102.555H400.489C402.217 102.557 403.873 103.244 405.094 104.466C406.315 105.687 407.002 107.344 407.004 109.071V266.21C407.002 267.938 406.315 269.594 405.094 270.815C403.873 272.037 402.217 272.724 400.489 272.726ZM179.506 105.162C178.47 105.163 177.477 105.575 176.744 106.308C176.011 107.041 175.599 108.035 175.598 109.071V266.21C175.599 267.247 176.011 268.24 176.744 268.973C177.477 269.706 178.47 270.119 179.506 270.12H400.489C401.526 270.119 402.519 269.706 403.252 268.973C403.985 268.24 404.397 267.247 404.398 266.21V109.071C404.397 108.035 403.985 107.041 403.252 106.308C402.519 105.575 401.526 105.163 400.489 105.162H179.506Z" fill="#04A6FE"/>
<path d="M415.003 103.859H194.02C191.142 103.859 188.808 106.193 188.808 109.072V266.21C188.808 269.089 191.142 271.423 194.02 271.423H415.003C417.881 271.423 420.214 269.089 420.214 266.21V109.072C420.214 106.193 417.881 103.859 415.003 103.859Z" fill="white"/>
<path d="M397.499 121.056H211.523C208.645 121.056 206.311 123.39 206.311 126.269V249.013C206.311 251.892 208.645 254.226 211.523 254.226H397.499C400.378 254.226 402.711 251.892 402.711 249.013V126.269C402.711 123.39 400.378 121.056 397.499 121.056Z" fill="#D9EBFF"/>
<path d="M415.003 272.726H194.02C192.293 272.724 190.637 272.037 189.416 270.815C188.194 269.594 187.507 267.938 187.505 266.21V109.071C187.507 107.344 188.194 105.687 189.416 104.466C190.637 103.244 192.293 102.557 194.02 102.555H415.003C416.73 102.557 418.386 103.244 419.607 104.466C420.829 105.687 421.516 107.344 421.518 109.071V266.21C421.516 267.938 420.829 269.594 419.607 270.816C418.386 272.037 416.73 272.724 415.003 272.726ZM194.02 105.162C192.984 105.163 191.99 105.575 191.257 106.308C190.525 107.041 190.112 108.035 190.111 109.071V266.21C190.112 267.247 190.525 268.24 191.257 268.973C191.99 269.706 192.984 270.119 194.02 270.12H415.003C416.039 270.119 417.033 269.706 417.765 268.973C418.498 268.24 418.91 267.247 418.912 266.21V109.071C418.91 108.035 418.498 107.041 417.765 106.308C417.033 105.575 416.039 105.163 415.003 105.162H194.02Z" fill="#04A6FE"/>
<path d="M397.499 121.056H211.523C210.141 121.056 208.815 121.605 207.838 122.582C206.861 123.56 206.311 124.886 206.311 126.269V140.623H402.711V126.269C402.711 124.886 402.162 123.56 401.185 122.582C400.207 121.605 398.882 121.056 397.499 121.056Z" fill="#88D5FF"/>
<path d="M206.311 237.591V249.013C206.311 250.396 206.861 251.721 207.838 252.699C208.815 253.677 210.141 254.226 211.523 254.226H397.499C398.882 254.226 400.207 253.677 401.185 252.699C402.162 251.721 402.711 250.396 402.711 249.013V237.591H206.311Z" fill="#88D5FF"/>
<path d="M388.526 151.99H319.73V153.728H388.526V151.99Z" fill="#72CDFF"/>
<path d="M388.526 166.832H319.73V168.57H388.526V166.832Z" fill="#72CDFF"/>
<path d="M388.526 181.673H319.73V183.411H388.526V181.673Z" fill="#72CDFF"/>
<path d="M388.526 196.516H220.774V198.254H388.526V196.516Z" fill="#72CDFF"/>
<path d="M388.526 211.358H220.774V213.096H388.526V211.358Z" fill="#72CDFF"/>
<path d="M388.526 226.201H220.774V227.938H388.526V226.201Z" fill="#72CDFF"/>
<g opacity="0.28">
<path d="M462.489 71.2488H336.175C333.297 71.2488 330.963 73.5827 330.963 76.4617V165.05C330.963 167.929 333.297 170.262 336.175 170.262H462.489C465.368 170.262 467.701 167.929 467.701 165.05V76.4617C467.701 73.5827 465.368 71.2488 462.489 71.2488Z" fill="#72CDFF"/>
</g>
<path d="M475.623 58.3865H349.309C346.431 58.3865 344.097 60.7204 344.097 63.5994V152.187C344.097 155.066 346.431 157.4 349.309 157.4H475.623C478.502 157.4 480.835 155.066 480.835 152.187V63.5994C480.835 60.7204 478.502 58.3865 475.623 58.3865Z" fill="white"/>
<path d="M475.623 158.704H349.309C347.582 158.702 345.926 158.015 344.704 156.793C343.483 155.572 342.796 153.915 342.794 152.188V63.5997C342.796 61.8721 343.483 60.2157 344.704 58.9941C345.926 57.7725 347.582 57.0854 349.309 57.0835H475.623C477.35 57.0854 479.006 57.7725 480.228 58.9941C481.449 60.2157 482.136 61.8721 482.138 63.5997V152.188C482.136 153.915 481.449 155.572 480.228 156.793C479.006 158.015 477.35 158.702 475.623 158.704ZM349.309 59.69C348.273 59.6911 347.279 60.1034 346.546 60.8364C345.813 61.5693 345.401 62.5631 345.4 63.5997V152.188C345.401 153.224 345.813 154.218 346.546 154.951C347.279 155.684 348.273 156.096 349.309 156.097H475.623C476.659 156.096 477.653 155.684 478.386 154.951C479.119 154.218 479.531 153.224 479.532 152.188V63.5997C479.531 62.5631 479.119 61.5693 478.386 60.8364C477.653 60.1034 476.659 59.6911 475.623 59.69H349.309Z" fill="#04A6FE"/>
<path d="M366.238 79.8079H363.631V135.979H366.238V79.8079Z" fill="#04A6FE"/>
<path d="M390.003 79.8079H387.397V135.979H390.003V79.8079Z" fill="#04A6FE"/>
<path d="M413.77 79.8079H411.163V135.979H413.77V79.8079Z" fill="#04A6FE"/>
<path d="M437.536 79.8079H434.929V135.979H437.536V79.8079Z" fill="#04A6FE"/>
<path d="M461.302 79.8079H458.695V135.979H461.302V79.8079Z" fill="#04A6FE"/>
<path d="M469.284 94.7061H355.874V97.3125H469.284V94.7061Z" fill="#04A6FE"/>
<path d="M469.284 118.477H355.874V121.084H469.284V118.477Z" fill="#04A6FE"/>
<path d="M418.242 100.193L416.505 102.136L430.265 114.439L432.001 112.496L418.242 100.193Z" fill="#04A6FE"/>
<path d="M430.265 100.193L416.505 112.496L418.242 114.439L432.002 102.136L430.265 100.193Z" fill="#04A6FE"/>
<path d="M297.368 38.9202L297.439 38.9396L297.386 38.9256L297.368 38.9202Z" fill="black"/>
<path d="M448.442 116.071C447.052 116.071 445.694 115.659 444.538 114.887C443.382 114.114 442.481 113.016 441.949 111.732C441.417 110.447 441.278 109.034 441.549 107.67C441.821 106.307 442.49 105.054 443.473 104.071C444.456 103.088 445.708 102.419 447.071 102.147C448.435 101.876 449.848 102.015 451.132 102.547C452.416 103.079 453.514 103.98 454.286 105.136C455.058 106.292 455.47 107.651 455.47 109.042C455.468 110.905 454.727 112.692 453.41 114.01C452.092 115.328 450.306 116.069 448.442 116.071ZM448.442 104.619C447.568 104.619 446.713 104.878 445.986 105.364C445.258 105.85 444.692 106.541 444.357 107.349C444.022 108.157 443.935 109.047 444.105 109.905C444.276 110.763 444.697 111.551 445.316 112.169C445.934 112.788 446.722 113.209 447.58 113.38C448.438 113.55 449.327 113.463 450.135 113.128C450.943 112.793 451.633 112.226 452.119 111.499C452.605 110.772 452.865 109.917 452.865 109.042C452.863 107.869 452.397 106.745 451.568 105.916C450.739 105.087 449.615 104.62 448.442 104.619Z" fill="#04A6FE"/>
<path d="M548.452 106.679C545.651 106.678 542.913 105.848 540.584 104.291C538.255 102.735 536.44 100.522 535.368 97.9339C534.297 95.3456 534.016 92.4975 534.563 89.7497C535.109 87.002 536.458 84.4781 538.439 82.4971C540.419 80.5161 542.943 79.1671 545.69 78.6205C548.437 78.074 551.284 78.3546 553.872 79.4267C556.46 80.4988 558.672 82.3144 560.228 84.6438C561.784 86.9733 562.615 89.7119 562.615 92.5135C562.61 96.2691 561.117 99.8696 558.462 102.525C555.807 105.181 552.207 106.674 548.452 106.679ZM548.452 80.9549C546.167 80.955 543.932 81.6329 542.032 82.9031C540.132 84.1732 538.65 85.9784 537.776 88.0905C536.901 90.2025 536.673 92.5266 537.118 94.7687C537.564 97.0108 538.665 99.0703 540.281 100.687C541.897 102.303 543.957 103.404 546.198 103.85C548.44 104.296 550.763 104.067 552.875 103.192C554.987 102.317 556.791 100.836 558.061 98.935C559.331 97.0343 560.009 94.7995 560.009 92.5135C560.005 89.4489 558.787 86.5109 556.62 84.344C554.453 82.1771 551.516 80.9582 548.452 80.9549Z" fill="#04A6FE"/>
<path d="M548.452 99.739C547.023 99.739 545.627 99.3152 544.439 98.5214C543.251 97.7275 542.325 96.5991 541.778 95.2789C541.232 93.9587 541.089 92.506 541.367 91.1045C541.646 89.703 542.334 88.4156 543.344 87.4051C544.354 86.3947 545.641 85.7065 547.043 85.4277C548.444 85.1489 549.896 85.2919 551.216 85.8387C552.536 86.3855 553.664 87.3115 554.458 88.4996C555.252 89.6877 555.676 91.0845 555.676 92.5135C555.674 94.4291 554.912 96.2657 553.558 97.6203C552.203 98.9748 550.367 99.7368 548.452 99.739ZM548.452 87.8953C547.539 87.8953 546.646 88.1662 545.887 88.6737C545.127 89.1812 544.535 89.9026 544.186 90.7465C543.836 91.5905 543.745 92.5192 543.923 93.4151C544.101 94.311 544.541 95.134 545.187 95.7799C545.833 96.4258 546.656 96.8657 547.552 97.0438C548.447 97.222 549.376 97.1305 550.22 96.7808C551.063 96.4312 551.784 95.8391 552.292 95.0796C552.799 94.32 553.07 93.427 553.07 92.5135C553.068 91.289 552.581 90.1152 551.716 89.2494C550.85 88.3837 549.676 87.8967 548.452 87.8953Z" fill="#04A6FE"/>
<path d="M519.584 118.83H516.079C514.466 118.829 512.919 118.187 511.778 117.045C510.636 115.904 509.995 114.357 509.993 112.743C509.994 112.279 509.902 111.82 509.723 111.393C509.543 110.965 509.28 110.578 508.948 110.255C508.619 109.927 508.227 109.669 507.796 109.499C507.364 109.328 506.903 109.247 506.439 109.261L454.195 110.345L454.14 107.738L506.385 106.655C507.195 106.638 508 106.783 508.753 107.082C509.506 107.38 510.192 107.826 510.771 108.393C511.349 108.96 511.809 109.637 512.123 110.384C512.437 111.13 512.599 111.933 512.599 112.743C512.6 113.666 512.967 114.551 513.619 115.203C514.272 115.856 515.157 116.223 516.079 116.224H519.584C520.507 116.223 521.392 115.856 522.044 115.203C522.697 114.551 523.064 113.666 523.065 112.743V97.299C523.067 95.6848 523.709 94.1373 524.85 92.9958C525.991 91.8544 527.538 91.2123 529.152 91.2104H536.427V93.8169H529.152C528.229 93.818 527.344 94.1853 526.692 94.8381C526.039 95.4909 525.672 96.3759 525.671 97.299V112.743C525.669 114.357 525.027 115.904 523.886 117.045C522.745 118.187 521.198 118.829 519.584 118.83Z" fill="#04A6FE"/>
<path d="M577.394 119.403H534.072C532.633 119.403 531.466 120.57 531.466 122.01V186.205C531.466 187.644 532.633 188.811 534.072 188.811H577.394C578.833 188.811 580 187.644 580 186.205V122.01C580 120.57 578.833 119.403 577.394 119.403Z" fill="#88D5FF"/>
<path d="M559.476 137.396H539.725V139.134H559.476V137.396Z" fill="#04A6FE"/>
<path d="M563.313 131.001H539.725V132.739H563.313V131.001Z" fill="#04A6FE"/>
<path d="M572.478 143.792H539.725V145.53H572.478V143.792Z" fill="#72CDFF"/>
<path d="M570.74 156.916H541.462C540.503 156.916 539.725 157.693 539.725 158.653V175.505C539.725 176.464 540.503 177.242 541.462 177.242H570.74C571.7 177.242 572.478 176.464 572.478 175.505V158.653C572.478 157.693 571.7 156.916 570.74 156.916Z" fill="#FAFAFA"/>
<path d="M543.132 159.262L542.33 160.803L569.067 174.721L569.869 173.18L543.132 159.262Z" fill="#04A6FE"/>
<path d="M569.066 159.26L542.331 173.182L543.133 174.723L569.868 160.801L569.066 159.26Z" fill="#04A6FE"/>
<path d="M296.32 152.859H222.511C221.552 152.859 220.774 153.637 220.774 154.597V180.804C220.774 181.764 221.552 182.542 222.511 182.542H296.32C297.279 182.542 298.057 181.764 298.057 180.804V154.597C298.057 153.637 297.279 152.859 296.32 152.859Z" fill="#88D5FF"/>
<path d="M520.052 201.352H427.698C426.259 201.352 425.092 202.519 425.092 203.958V321.202C425.092 322.642 426.259 323.809 427.698 323.809H520.052C521.492 323.809 522.658 322.642 522.658 321.202V203.958C522.658 202.519 521.492 201.352 520.052 201.352Z" fill="#D9EBFF"/>
<path d="M520.052 325.112H427.699C426.662 325.111 425.669 324.699 424.936 323.966C424.203 323.233 423.791 322.239 423.79 321.202V203.958C423.791 202.922 424.203 201.928 424.936 201.195C425.669 200.462 426.662 200.05 427.699 200.049H520.052C521.089 200.05 522.082 200.462 522.815 201.195C523.548 201.928 523.96 202.922 523.961 203.958V321.202C523.96 322.239 523.548 323.233 522.815 323.966C522.082 324.699 521.089 325.111 520.052 325.112ZM427.699 202.655C427.353 202.655 427.022 202.793 426.778 203.037C426.533 203.282 426.396 203.613 426.396 203.958V321.202C426.396 321.548 426.533 321.879 426.778 322.123C427.022 322.368 427.353 322.505 427.699 322.505H520.052C520.398 322.505 520.729 322.368 520.973 322.123C521.218 321.879 521.355 321.548 521.355 321.202V203.958C521.355 203.613 521.218 203.282 520.973 203.037C520.729 202.793 520.398 202.655 520.052 202.655H427.699Z" fill="#04A6FE"/>
<path d="M522.658 219.667H425.093V222.274H522.658V219.667Z" fill="#04A6FE"/>
<path d="M522.658 239.288H425.093V241.895H522.658V239.288Z" fill="#04A6FE"/>
<path d="M522.658 259.778H425.093V262.384H522.658V259.778Z" fill="#04A6FE"/>
<path d="M522.658 280.266H425.093V282.873H522.658V280.266Z" fill="#04A6FE"/>
<path d="M522.658 300.756H425.093V303.362H522.658V300.756Z" fill="#04A6FE"/>
<path d="M515.466 210.443H509.212V213.05H515.466V210.443Z" fill="#04A6FE"/>
<path d="M503.791 210.443H497.537V213.05H503.791V210.443Z" fill="#04A6FE"/>
<path d="M492.117 210.443H485.863V213.05H492.117V210.443Z" fill="#04A6FE"/>
<path d="M480.442 210.443H474.188V213.05H480.442V210.443Z" fill="#04A6FE"/>
<path d="M443.282 220.102H440.676V323.75H443.282V220.102Z" fill="#04A6FE"/>
<path d="M464.547 220.102H461.94V323.75H464.547V220.102Z" fill="#04A6FE"/>
<path d="M485.811 220.102H483.205V323.75H485.811V220.102Z" fill="#04A6FE"/>
<path d="M507.076 220.102H504.469V323.75H507.076V220.102Z" fill="#04A6FE"/>
<path d="M26.3886 323.295H66.4846C64.2462 323.295 62.0728 322.542 60.3143 321.156C58.5558 319.771 57.3144 317.834 56.7899 315.658L43.8227 261.846C43.2982 259.67 42.0568 257.733 40.2983 256.348C38.5398 254.962 36.3665 254.209 34.128 254.209H30.8742C29.3683 254.209 27.8819 254.55 26.5266 255.207C25.1713 255.863 23.9823 256.819 23.0489 258.001C22.1154 259.182 21.4616 260.561 21.1367 262.031C20.8118 263.502 20.8241 265.027 21.1727 266.493L31.9755 311.897C32.3242 313.362 32.3365 314.888 32.0115 316.358C31.6866 317.829 31.0329 319.207 30.0994 320.389C29.1659 321.571 27.9769 322.526 26.6216 323.183C25.2664 323.839 23.78 324.181 22.2741 324.181L26.3886 323.295Z" fill="#72CDFF"/>
<path d="M29.3108 254.12H69.4069H69.5005L82.5726 311.089C82.9079 312.551 82.9095 314.069 82.5773 315.531C82.245 316.993 81.5874 318.362 80.6533 319.535C79.7193 320.708 78.533 321.655 77.1825 322.306C75.832 322.957 74.3521 323.295 72.8529 323.295H66.4846C64.2462 323.295 62.0728 322.542 60.3143 321.156C58.5558 319.771 57.3144 317.834 56.7899 315.657L43.8227 261.846C43.2982 259.67 42.0568 257.733 40.2983 256.348C38.5398 254.962 36.3664 254.209 34.128 254.209L29.3108 254.12Z" fill="#04A6FE"/>
<path d="M8.68642 304.606L12.7338 317.11C13.3562 319.156 14.6195 320.947 16.3372 322.22C18.0549 323.493 20.1362 324.181 22.2741 324.181C23.78 324.181 25.2663 323.839 26.6216 323.183C27.9769 322.526 29.1659 321.571 30.0994 320.389C31.0329 319.207 31.6866 317.829 32.0115 316.358C32.3364 314.887 32.3241 313.362 31.9755 311.897L30.2409 304.606H8.68642Z" fill="#04A6FE"/>
<path d="M72.8529 323.295C74.3521 323.295 75.832 322.957 77.1825 322.306C78.533 321.655 79.7193 320.708 80.6534 319.535C81.5874 318.362 82.245 316.993 82.5773 315.531C82.9095 314.069 82.9079 312.551 82.5726 311.089L60.8997 216.638C60.5643 215.176 60.5627 213.658 60.895 212.196C61.2273 210.733 61.8849 209.365 62.8189 208.192C63.7529 207.019 64.9393 206.072 66.2898 205.421C67.6403 204.77 69.1202 204.432 70.6193 204.432H74.5043L128.657 216.638L150.329 311.089C150.665 312.551 150.666 314.069 150.334 315.531C150.002 316.993 149.344 318.362 148.41 319.535C147.476 320.708 146.29 321.655 144.939 322.306C143.589 322.957 142.109 323.295 140.61 323.295H72.8529Z" fill="#72CDFF"/>
<path d="M138.376 204.432H142.261C144.424 204.432 146.529 205.135 148.257 206.436C149.986 207.737 151.244 209.565 151.843 211.644L156.365 227.334C156.964 229.413 158.223 231.241 159.951 232.542C161.68 233.843 163.784 234.546 165.947 234.546H98.1904C96.0273 234.546 93.9228 233.843 92.1944 232.542C90.466 231.241 89.2073 229.413 88.6082 227.334L84.0866 211.644C83.4875 209.565 82.2288 207.737 80.5004 206.436C78.7719 205.135 76.6675 204.432 74.5043 204.432H138.376Z" fill="#04A6FE"/>
<path d="M98.1904 234.546H99.2811C100.789 234.546 102.278 234.204 103.635 233.545C104.991 232.887 106.181 231.929 107.115 230.744C108.048 229.559 108.7 228.178 109.023 226.705C109.345 225.231 109.329 223.704 108.976 222.237L107.334 215.415H175.091L176.733 222.237C177.086 223.704 177.102 225.231 176.78 226.705C176.457 228.178 175.805 229.559 174.871 230.744C173.938 231.929 172.748 232.887 171.391 233.545C170.035 234.204 168.546 234.546 167.038 234.546H98.1904Z" fill="#0095E6"/>
<path d="M119.455 249.718H76.926V252.325H119.455V249.718Z" fill="#04A6FE"/>
<path d="M130.451 249.718H124.822V252.325H130.451V249.718Z" fill="#04A6FE"/>
<path d="M122.373 261.083H79.8446V263.689H122.373V261.083Z" fill="#04A6FE"/>
<path d="M133.369 261.083H127.74V263.689H133.369V261.083Z" fill="#04A6FE"/>
<path d="M125.358 272.551H82.8297V275.157H125.358V272.551Z" fill="#04A6FE"/>
<path d="M136.354 272.551H130.725V275.157H136.354V272.551Z" fill="#04A6FE"/>
<path d="M128.343 284.019H85.8144V286.626H128.343V284.019Z" fill="#04A6FE"/>
<path d="M139.339 284.019H133.71V286.626H139.339V284.019Z" fill="#04A6FE"/>
<path d="M131.328 295.488H88.799V298.094H131.328V295.488Z" fill="#04A6FE"/>
<path d="M142.324 295.488H136.695V298.094H142.324V295.488Z" fill="#04A6FE"/>
<path d="M134.313 306.957H91.7841V309.563H134.313V306.957Z" fill="#04A6FE"/>
<path d="M145.309 306.957H139.68V309.563H145.309V306.957Z" fill="#04A6FE"/>
<path d="M55.7418 270.835H32.2932V273.441H55.7418V270.835Z" fill="#04A6FE"/>
<path d="M57.3511 282.199H33.9024V284.806H57.3511V282.199Z" fill="#04A6FE"/>
<path d="M58.9971 293.667H35.5485V296.273H58.9971V293.667Z" fill="#04A6FE"/>
<path d="M60.6428 305.136H37.1941V307.742H60.6428V305.136Z" fill="#04A6FE"/>
<g opacity="0.28">
<path d="M193.485 77.3125H86.803C85.8435 77.3125 85.0657 78.0905 85.0657 79.0502V160.741C85.0657 161.701 85.8435 162.479 86.803 162.479H193.485C194.445 162.479 195.222 161.701 195.222 160.741V79.0502C195.222 78.0905 194.445 77.3125 193.485 77.3125Z" fill="#72CDFF"/>
</g>
<path d="M178.987 64.2734H72.3044C71.3449 64.2734 70.5671 65.0514 70.5671 66.0111V147.702C70.5671 148.662 71.3449 149.44 72.3044 149.44H178.987C179.946 149.44 180.724 148.662 180.724 147.702V66.0111C180.724 65.0514 179.946 64.2734 178.987 64.2734Z" fill="white"/>
<path d="M178.986 150.743H72.3046C71.4986 150.742 70.7258 150.421 70.1559 149.851C69.5859 149.281 69.2653 148.508 69.2643 147.702V66.0111C69.2653 65.2049 69.5859 64.432 70.1559 63.8619C70.7258 63.2919 71.4986 62.9712 72.3046 62.9702H178.986C179.792 62.9712 180.565 63.2919 181.135 63.8619C181.705 64.432 182.026 65.2049 182.027 66.0111V147.702C182.026 148.508 181.705 149.281 181.135 149.851C180.565 150.421 179.792 150.742 178.986 150.743ZM72.3046 65.5767C72.1894 65.5768 72.0791 65.6227 71.9976 65.7041C71.9162 65.7855 71.8704 65.8959 71.8703 66.0111V147.702C71.8704 147.817 71.9162 147.927 71.9976 148.009C72.0791 148.09 72.1894 148.136 72.3046 148.136H178.986C179.102 148.136 179.212 148.09 179.293 148.009C179.375 147.927 179.421 147.817 179.421 147.702V66.0111C179.421 65.8959 179.375 65.7855 179.293 65.7041C179.212 65.6227 179.102 65.5768 178.986 65.5767H72.3046Z" fill="#04A6FE"/>
<path d="M155.852 77.3125H104.069C103.109 77.3125 102.331 78.0905 102.331 79.0502V112.775C102.331 113.735 103.109 114.513 104.069 114.513H155.852C156.811 114.513 157.589 113.735 157.589 112.775V79.0502C157.589 78.0905 156.811 77.3125 155.852 77.3125Z" fill="#88D5FF"/>
<path d="M157.589 82.9517H102.331V90.7461H157.589V82.9517Z" fill="#D9EBFF"/>
<path d="M148.822 95.6765C148.851 95.2542 148.713 94.8376 148.436 94.517C148.16 94.1964 147.768 93.9977 147.346 93.9641H102.331V112.801C102.302 113.223 102.441 113.64 102.718 113.96C102.994 114.281 103.385 114.479 103.807 114.513H154.044L148.822 95.6765Z" fill="#04A6FE"/>
<path d="M143.1 99.0574H91.3169C90.3574 99.0574 89.5796 99.8353 89.5796 100.795V134.52C89.5796 135.48 90.3574 136.258 91.3169 136.258H143.1C144.06 136.258 144.837 135.48 144.837 134.52V100.795C144.837 99.8353 144.06 99.0574 143.1 99.0574Z" fill="#0095E6"/>
<path d="M140.144 125.275H93.9188V131.121H140.144V125.275Z" fill="#04A6FE"/>
<g opacity="0.61">
<path d="M98.6121 114.956C100.96 114.956 102.863 113.053 102.863 110.705C102.863 108.357 100.96 106.453 98.6121 106.453C96.2646 106.453 94.3615 108.357 94.3615 110.705C94.3615 113.053 96.2646 114.956 98.6121 114.956Z" fill="#88D5FF"/>
</g>
<g opacity="0.61">
<path d="M103.925 114.956C106.273 114.956 108.176 113.053 108.176 110.705C108.176 108.357 106.273 106.453 103.925 106.453C101.578 106.453 99.6748 108.357 99.6748 110.705C99.6748 113.053 101.578 114.956 103.925 114.956Z" fill="#88D5FF"/>
</g>
</svg>
