<svg width="318" height="246" viewBox="0 0 318 246" fill="none" xmlns="http://www.w3.org/2000/svg">
<path d="M266.88 214.62C306.138 176.431 308.147 117.872 237.283 52.201C227.005 42.6537 221.982 29.3572 211.781 22.2064C180.87 0.522223 137.478 4.92864 110.16 37.1264C95.2068 54.7521 89.1791 78.9487 73.6462 96.2265C56.22 115.63 35.3548 134.493 27.4338 160.931C22.1789 178.441 23.0676 197.535 29.0566 214.659C115.145 229.965 196.519 234.681 266.88 214.62Z" fill="#CCE9FF"/>
<path d="M235.583 177.707C235.583 177.707 230.482 208.861 249.647 216.166C268.812 223.471 263.982 208.32 263.982 208.32C263.982 208.32 271.363 205.768 249.763 195.255C239.601 190.307 235.583 177.707 235.583 177.707Z" fill="#0B4870"/>
<path d="M260.466 218.137C260.466 218.137 287.514 218.331 293.426 181.997C299.299 145.663 313.016 138.783 313.016 138.783C313.016 138.783 254.207 145.663 260.466 218.137Z" fill="#0099FF"/>
<path d="M259.655 217.171C265.953 226.525 281.679 197.961 276.656 179.523C271.633 161.047 261.78 149.954 261.664 136.889C261.664 136.851 228.628 171.174 259.655 217.171Z" fill="#333434"/>
<path d="M7.30273 185.514C7.30273 185.514 14.1419 216.32 34.6592 215.973C55.1766 215.625 45.0532 203.333 45.0532 203.333C45.0532 203.333 50.9649 198.192 27.0087 196.492C15.7261 195.718 7.30273 185.514 7.30273 185.514Z" fill="#0B4870"/>
<path d="M43.6622 214.349C43.6622 214.349 64.4114 207.856 57.9973 184.857C51.6219 161.859 60.0066 154.438 60.0066 154.438C60.0066 154.438 17.1558 172.875 43.6622 214.349Z" fill="#333434"/>
<path d="M41.5756 213.576C50.8877 219.915 54.9061 187.563 43.3531 172.295C31.8386 157.027 18.5467 150.379 13.6009 138.281C13.6009 138.281 -4.32763 182.461 41.5756 213.576Z" fill="#0099FF"/>
<path d="M146.867 214.581L151.736 220.843C151.736 220.843 145.206 228.11 147.369 227.453C149.572 226.757 161.589 217.094 161.589 217.094C161.589 217.094 155.793 209.286 155.87 209.247C155.986 209.209 146.867 214.581 146.867 214.581Z" fill="#0B4870"/>
<path d="M139.719 167.618L160.314 211.025L147.215 218.408L125.809 179.523L127.161 166.729L139.719 167.618Z" fill="#0B4870"/>
<path d="M193.08 180.258L208.497 232.787L210.274 232.748L198.412 179.948L193.08 180.258ZM165.221 181.108L153.475 233.096L155.561 233.057L171.287 180.953L165.221 181.108ZM178.938 179.639L180.754 232.477L183.227 232.439L184.309 179.716L178.938 179.639Z" fill="#D3D3D3"/>
<path d="M164.68 202.057L199.88 200.202L200.112 203.835L162.014 206.116L164.68 202.057Z" fill="#D3D3D3"/>
<path opacity="0.15" d="M165.182 181.108L164.641 183.775L170.476 183.659L171.21 180.992L165.182 181.108ZM178.976 180.915L179.054 183.466L184.231 183.35L184.308 180.296L178.976 180.915Z" fill="#D3D3D3"/>
<path opacity="0.5" d="M179.672 201.092L179.788 204.88L177.547 204.918L176.697 201.246L180.252 201.053M184.231 201.053V204.802L185.932 204.686L186.395 200.937L184.231 201.053Z" fill="#D3D3D3"/>
<path d="M153.088 177.32C158.073 174.885 178.281 176.199 178.281 176.199C178.281 176.199 172.563 105.348 179.943 104.769C187.323 104.189 204.015 98.8934 207.029 109.6C210.197 120.848 205.908 181.069 201.696 180.489C192.075 179.175 162.323 182.615 153.359 180.489C151.079 179.948 153.088 177.32 153.088 177.32Z" fill="#333434"/>
<path d="M200.691 110.837C200.73 110.837 200.846 111.031 201.116 111.417C201.232 111.61 201.387 111.842 201.541 112.152C201.696 112.461 201.851 112.809 202.044 113.195C202.739 114.78 203.473 117.254 203.783 120.346C204.13 123.438 204.13 127.149 204.092 131.246C204.014 135.343 203.783 139.827 203.396 144.543C203.01 149.258 202.585 153.742 202.16 157.801C201.735 161.859 201.31 165.531 200.769 168.585C200.228 171.638 199.494 174.073 198.914 175.697C198.334 177.32 197.871 178.171 197.832 178.171C197.755 178.132 198.064 177.243 198.528 175.581C198.991 173.919 199.571 171.522 200.035 168.469C200.498 165.415 200.846 161.782 201.194 157.723C201.58 153.665 202.005 149.181 202.353 144.504C202.701 139.827 203.01 135.343 203.126 131.246C203.242 127.188 203.319 123.516 203.048 120.462C202.817 117.408 202.237 114.973 201.657 113.388C201.078 111.726 200.614 110.876 200.691 110.837Z" fill="#333434"/>
<path d="M125.848 136.31L123.993 135.343C123.993 135.343 122.795 134.918 120.863 133.758C120.361 133.449 119.897 133.063 119.549 132.638C119.086 132.096 118.506 131.362 118.274 130.859C118.004 130.241 117.192 130.202 117.038 130.744C116.922 131.285 117.579 132.985 119.124 134.493C120.67 136 117.424 135.536 116.226 135.421C115.029 135.266 111.358 134.995 111.049 135.343C110.624 135.807 111.087 136.426 112.285 136.541C113.483 136.657 117.038 137.276 116.999 137.894C116.961 138.513 110.894 137.701 110.894 137.701C110.894 137.701 109.619 137.315 109.542 138.049C109.387 139.324 115.84 139.75 116.458 139.75C116.883 139.75 116.845 140.445 116.381 140.407C115.917 140.368 110.353 139.44 110.199 140.755C110.083 141.76 115.492 141.141 116.613 141.953C117.733 142.765 112.401 141.992 112.324 142.958C112.285 143.306 112.324 143.576 115.376 143.615C118.506 143.615 126.929 142.262 126.929 142.262L125.732 136.31" fill="#FFBA98"/>
<path d="M167.23 111.069C167.23 111.069 151.427 132.328 147.795 133.256C144.162 134.222 123.413 135.459 123.413 135.459L121.559 144.426C121.559 144.426 148.104 145.818 153.938 141.527C163.134 134.763 172.755 119.147 172.755 119.147C173.065 114.006 171.094 111.455 167.23 111.069Z" fill="#F7F7F7"/>
<path d="M124.263 222.389L125.268 230.274C125.268 230.274 115.917 233.212 118.158 233.753C120.399 234.294 135.662 232.091 135.662 232.091C135.662 232.091 134.619 222.428 134.735 222.428C134.851 222.389 124.263 222.389 124.263 222.389ZM188.404 150.804C188.404 150.804 197.214 169.628 179.826 176.122L170.553 155.984L188.404 150.804Z" fill="#0099FF"/>
<path d="M176.31 155.829C176.31 155.829 126.157 142.03 120.515 153.626C114.874 165.183 121.597 225.443 121.597 225.443L137.285 223.781C137.285 223.781 134.657 170.865 137.285 169.01C139.912 167.154 176.04 176.276 179.826 176.122C189.061 175.735 195.591 158.496 176.31 155.829Z" fill="#0099FF"/>
<path d="M177.392 105.387C170.824 105.542 165.453 110.76 165.144 117.331C164.873 122.819 165.414 130.318 163.946 136.928C163.173 140.329 158.729 154.012 158.729 154.012L163.173 154.747C170.051 155.906 177.122 155.558 183.845 153.742L188.907 152.389C188.907 152.389 191.843 137.16 193.466 122.858C194.857 110.914 192.577 106.276 185.313 105.232L177.392 105.387Z" fill="#F7F7F7"/>
<path d="M173.915 106.237C174.146 105.078 173.76 100.208 173.76 100.208C173.76 100.208 169.316 99.6278 169.162 95.2214C168.969 90.815 169.471 80.6493 169.471 80.6493L177.663 76.8613L186.434 83.7802L187.245 88.6504L185.197 94.4483L184.27 105.503L173.915 106.237Z" fill="#FFBA98"/>
<path d="M173.76 100.207C173.76 100.207 176.735 100.285 179.633 98.3521C179.633 98.3521 178.242 101.56 173.838 101.29L173.76 100.207Z" fill="#A0654B"/>
<path d="M164.062 151.345L161.975 151.229C161.975 151.229 160.7 151.345 158.459 151.075C157.88 150.997 157.3 150.843 156.759 150.611C156.102 150.302 155.252 149.876 154.866 149.528C154.363 149.065 153.591 149.374 153.707 149.954C153.822 150.533 155.136 151.77 157.184 152.505C159.232 153.239 156.063 154.205 154.943 154.553C153.822 154.901 150.345 156.215 150.229 156.641C150.036 157.259 150.731 157.607 151.852 157.22C153.011 156.834 156.45 155.868 156.682 156.447C156.875 157.027 151.079 158.805 151.079 158.805C151.079 158.805 149.765 158.998 149.997 159.694C150.422 160.931 156.411 158.573 156.991 158.341C157.377 158.187 157.648 158.805 157.223 158.96C156.759 159.114 151.35 160.622 151.775 161.859C152.084 162.825 156.759 159.965 158.111 160.274C159.464 160.545 154.325 162.091 154.634 162.98C154.75 163.328 154.904 163.559 157.686 162.284C160.546 160.97 167.578 156.215 167.578 156.215L163.985 151.307" fill="#FFBA98"/>
<path d="M170.36 155.404C170.36 155.404 180.213 152.582 186.472 146.745C191.457 142.107 191.38 137.778 191.38 137.778L193.737 119.688L170.36 155.404Z" fill="#D3D3D3"/>
<path d="M184.077 106.778C184.077 106.778 182.184 133.217 179.634 135.961C177.083 138.706 160.275 150.92 160.275 150.92L163.56 159.501C163.56 159.501 186.666 146.359 189.293 139.595C192.423 131.4 193.003 118.645 193.08 113.195C193.119 110.876 192.191 108.634 190.375 107.204C188.482 105.696 186.357 105.619 184.077 106.778Z" fill="#F7F7F7"/>
<path d="M196.905 178.054C196.828 178.363 192.268 177.629 186.55 177.165C180.87 176.701 176.194 176.663 176.194 176.354C176.194 176.083 180.87 175.658 186.627 176.122C192.423 176.624 196.982 177.784 196.905 178.054ZM195.166 131.594C195.128 131.632 194.934 131.594 194.857 131.284C194.78 131.014 194.934 130.55 195.321 130.279C195.514 130.125 195.823 130.009 196.171 130.048C196.364 130.086 196.519 130.125 196.673 130.202C196.828 130.279 196.944 130.395 197.059 130.511C197.523 131.052 197.639 131.787 197.369 132.521C197.098 133.217 196.557 133.72 195.9 133.874C195.746 133.913 195.553 133.913 195.398 133.913C195.243 133.913 195.05 133.835 194.934 133.758C194.664 133.604 194.471 133.372 194.393 133.14C194.2 132.715 194.239 132.251 194.432 132.019C194.587 131.787 194.78 131.787 194.818 131.826C194.857 131.864 194.818 132.019 194.818 132.173C194.818 132.328 194.857 132.56 195.05 132.753C195.128 132.869 195.243 132.946 195.359 132.985C195.437 132.985 195.475 133.024 195.514 132.985C195.591 132.985 195.668 132.985 195.707 132.946C195.978 132.869 196.325 132.56 196.441 132.173C196.557 131.826 196.519 131.362 196.364 131.13C196.171 130.859 196.016 130.821 195.746 130.898C195.514 130.975 195.359 131.168 195.282 131.284C195.205 131.4 195.243 131.555 195.166 131.594Z" fill="#333434"/>
<path d="M183.149 115.128C183.227 115.128 183.265 115.746 183.265 116.828C183.265 117.911 183.227 119.534 183.111 121.467C182.956 123.438 182.724 125.796 182.145 128.347C181.565 130.898 180.561 133.681 178.899 136.271C177.199 138.822 175.035 140.832 172.987 142.455C170.94 144.079 168.969 145.354 167.346 146.475C164.1 148.678 162.246 150.224 162.168 150.108C162.13 150.07 162.555 149.606 163.366 148.872C164.178 148.137 165.414 147.132 166.998 145.934C168.583 144.736 170.476 143.422 172.485 141.798C174.456 140.175 176.542 138.203 178.126 135.768C179.711 133.294 180.715 130.627 181.295 128.154C181.913 125.68 182.222 123.361 182.454 121.428C182.879 117.563 183.034 115.128 183.149 115.128ZM177.817 106.895L178.165 102.952L184.579 101.792L186.511 105.967L177.817 106.895ZM173.76 102.488L176.31 102.952V106.895L173.103 106.238L173.876 101.792M166.071 120.887C166.071 125.023 165.569 129.12 164.564 133.14L166.071 120.887Z" fill="#D3D3D3"/>
<path d="M67.2319 148.678H228.782V153.974H67.2319V148.678ZM79.8669 153.974L67.2319 233.444L73.5301 233.56L95.2453 153.974H79.8669Z" fill="#009AFE"/>
<path d="M217.036 153.085L224.377 235.106H218.466L202.585 156.486L201.773 150.649L217.036 153.085Z" fill="#009AFE"/>
<path opacity="0.3" d="M202.237 153.974L202.817 157.607L217.384 157.066L217.113 153.974H202.237ZM79.8669 153.974L79.2874 157.723L94.318 157.298L95.2453 153.974H79.8669Z" fill="#000C38"/>
<path d="M91.4202 119.263L101.505 148.678H147.061L146.713 147.17L128.282 146.591L119.82 119.263H91.4202Z" fill="#D3D3D3"/>
<path d="M111.628 133.487C111.937 134.686 111.396 135.884 110.469 136.116C109.542 136.348 108.537 135.575 108.228 134.376C107.919 133.178 108.46 131.98 109.387 131.748C110.314 131.516 111.319 132.289 111.628 133.487Z" fill="#F7F7F7"/>
<path d="M202.894 139.518C201.542 134.918 200.923 128.463 200.576 123.709C200.498 122.781 200.46 121.776 200.808 120.926C201.155 120.037 201.967 119.264 202.894 119.302C203.667 119.302 204.401 119.882 204.787 120.539C205.174 121.235 205.328 122.008 205.483 122.781C206.333 127.226 207.222 131.632 208.072 136.077C208.883 134.493 210.004 133.063 211.279 131.864C211.858 131.323 212.708 130.782 213.404 131.169C214.022 131.516 214.099 132.367 214.061 133.101C213.984 135.266 213.713 137.43 213.249 139.556" fill="#0B4870"/>
<path d="M201.04 139.054C201.04 139.054 198.76 148.06 207.956 148.485C216.418 148.872 214.409 139.054 214.409 139.054H201.04Z" fill="#0099FF"/>
<path d="M179.633 84.7466C179.633 84.7466 179.711 84.7853 179.827 84.8626C179.942 84.9399 180.136 85.0558 180.367 85.2491C180.792 85.597 181.333 86.2927 181.488 87.2977C181.565 87.8002 181.565 88.38 181.372 88.9211C181.179 89.5009 180.87 90.042 180.329 90.5059C180.097 90.7378 179.788 90.9311 179.479 91.0857C179.17 91.2403 178.822 91.3562 178.436 91.3949C177.701 91.5109 176.929 91.3562 176.233 91.0084C175.538 90.6218 174.997 90.042 174.688 89.3849C174.533 89.0371 174.417 88.6892 174.378 88.3413C174.34 87.9934 174.34 87.6456 174.378 87.2977C174.456 86.6406 174.765 86.0222 175.151 85.5583C175.538 85.0945 176.001 84.7853 176.465 84.5534C177.392 84.1282 178.281 84.2441 178.783 84.3987C179.054 84.476 179.247 84.5534 179.363 84.6307C179.556 84.708 179.633 84.7466 179.633 84.7466C179.633 84.7853 179.363 84.592 178.822 84.476C178.281 84.3601 177.47 84.2828 176.581 84.708C176.156 84.9012 175.692 85.2104 175.344 85.6743C174.997 86.1381 174.726 86.6793 174.649 87.2977C174.61 87.6069 174.61 87.9548 174.649 88.264C174.688 88.6119 174.803 88.9211 174.958 89.2303C175.228 89.8488 175.769 90.3899 176.388 90.7765C177.044 91.1243 177.779 91.2403 178.474 91.163C178.822 91.1243 179.131 91.0084 179.44 90.8924C179.749 90.7378 180.02 90.5832 180.252 90.3513C180.754 89.9261 181.063 89.385 181.256 88.8438C181.449 88.3027 181.449 87.7615 181.372 87.2977C181.218 86.3314 180.715 85.6356 180.329 85.2878C179.904 84.9012 179.633 84.7853 179.633 84.7466ZM169.78 84.0509H170.012C170.167 84.0509 170.36 84.0895 170.63 84.1668C171.171 84.3214 171.944 84.6693 172.562 85.481C172.871 85.9062 173.103 86.4087 173.181 86.9885C173.258 87.5683 173.219 88.2254 172.987 88.8825C172.871 89.1917 172.678 89.5009 172.485 89.7715C172.253 90.042 172.021 90.3126 171.712 90.5059C171.094 90.9311 170.36 91.163 169.549 91.1243C168.776 91.0857 168.042 90.8151 167.462 90.3513C167.153 90.1194 166.921 89.8488 166.728 89.5782C166.535 89.269 166.38 88.9598 166.264 88.6505C166.032 87.9935 166.071 87.3364 166.187 86.7566C166.303 86.1768 166.612 85.6743 166.921 85.2878C167.578 84.5147 168.389 84.2055 168.93 84.0895C169.201 84.0509 169.433 84.0122 169.587 84.0509C169.703 84.0122 169.78 84.0509 169.78 84.0509C169.78 84.0895 169.471 84.0509 168.93 84.1668C168.389 84.2828 167.617 84.6307 166.998 85.3651C166.689 85.7516 166.419 86.2154 166.303 86.7952C166.187 87.3363 166.187 87.9934 166.38 88.5732C166.457 88.8825 166.612 89.1917 166.805 89.4623C166.998 89.7328 167.23 90.0034 167.501 90.1967C168.042 90.6218 168.737 90.8924 169.471 90.9311C170.205 90.9311 170.94 90.7378 171.48 90.3513C171.751 90.158 172.021 89.9261 172.215 89.6555C172.408 89.385 172.601 89.1144 172.717 88.8052C172.949 88.2254 173.026 87.6069 172.949 87.0271C172.871 86.4473 172.64 85.9835 172.369 85.5583C171.79 84.7466 171.055 84.3601 170.553 84.2055C170.089 84.0509 169.78 84.0509 169.78 84.0509Z" fill="#0B4870"/>
<path d="M173.064 87.9162C173.064 87.8775 173.412 87.8389 173.837 87.8389C174.262 87.8389 174.571 87.9162 174.571 87.9548C174.571 87.9935 174.224 88.0321 173.799 88.0321C173.374 88.0321 173.026 87.9935 173.064 87.9162ZM181.295 88.2254C181.295 88.1867 182.106 88.1481 183.111 88.1867C184.115 88.2254 184.927 88.3027 184.927 88.3413C184.927 88.38 184.115 88.4187 183.111 88.38C182.106 88.3414 181.295 88.264 181.295 88.2254Z" fill="#0B4870"/>
<path d="M184.888 95.1825C187.245 92.5928 187.477 88.8435 187.515 85.3261C187.554 83.6254 187.438 81.886 186.588 80.4172C185.738 78.987 184.27 78.0594 182.763 77.4023C180.445 76.3973 177.817 75.9335 175.344 76.3973C172.871 76.8611 170.514 78.3299 169.278 80.5332C169.278 80.5332 180.754 80.3012 181.526 80.7651C182.299 81.2289 184.656 82.891 184.463 84.9396C184.27 86.9882 183.69 90.0031 183.69 90.0031L185.545 89.7325C185.545 89.7325 185.39 86.9495 186.202 87.0268C186.975 87.1814 184.888 95.1825 184.888 95.1825Z" fill="#0099FF"/>
<path d="M185.429 90.4285C185.506 90.7377 185.854 90.9697 186.202 90.931C186.55 90.931 186.859 90.7377 187.129 90.5445C187.67 90.1193 188.134 89.5008 188.211 88.8051C188.288 88.1093 187.979 87.3363 187.4 86.9884C186.782 86.6405 185.893 86.7952 185.545 87.4136L185.429 90.4285Z" fill="#FFBA98"/>
</svg>
