<svg width="21" height="22" viewBox="0 0 21 22" fill="none" xmlns="http://www.w3.org/2000/svg">
<path d="M18.4724 13.7293V13.5196L9.24374 8.87299L5.88788 7.22735L5.78301 10.6881C5.79028 11.1174 5.78301 11.2958 5.80162 11.7875C5.82022 12.2792 10.0827 14.0439 10.0827 14.0439C9.01397 14.9549 7.70959 15.6907 6.51711 16.4321C6.11746 16.6804 5.53901 17.0621 5.05053 16.8472C4.13112 16.4428 4.31482 15.1619 4.31482 14.3586V7.64684C4.31482 6.8818 4.31482 5.78923 4.859 5.20775C5.88788 4.8059 7.20327 5.75298 7.9853 6.15295C10.8808 7.63425 13.61 9.44765 16.5199 10.9025C17.3915 11.3384 18.9782 12.0825 19.1748 12.1808C19.3715 12.2792 20.0926 12.5742 20.1582 12.3775C21.0432 9.72253 19.444 8.19982 18.1578 7.30852C15.1432 5.00257 11.1871 3.32889 7.77556 1.30719C6.09218 0.30966 4.09576 -0.615609 2.21741 0.52811C0.984906 1.27857 0.289771 2.66632 0.138201 4.08123C-0.16175 6.88128 0.119995 9.86328 0.119995 12.6806C0.119995 14.4445 -0.175981 16.5122 0.190154 18.2388C0.533994 19.8602 1.37751 21.1332 2.9515 21.7572C4.86941 22.5175 6.62416 21.3381 8.19504 20.3417C11.6314 18.1622 15.0989 16.0051 18.4724 13.7293Z" fill="white"/>
</svg>
