<svg width="15" height="14" viewBox="0 0 15 14" fill="none" xmlns="http://www.w3.org/2000/svg">
<path fill-rule="evenodd" clip-rule="evenodd" d="M4.62565 0H9.9964C12.4678 0 14.472 1.92283 14.472 4.29396V9.4467C14.472 11.8178 12.4678 13.7407 9.9964 13.7407H4.62565C2.15421 13.7407 0.150024 11.8178 0.150024 9.4467V4.29396C0.150024 1.92283 2.15421 0 4.62565 0ZM9.99664 12.4527C11.7242 12.4527 13.1296 11.1044 13.1296 9.44697V4.29422C13.1296 2.63676 11.7242 1.28845 9.99664 1.28845H4.62589C2.8983 1.28845 1.49295 2.63676 1.49295 4.29422V9.44697C1.49295 11.1044 2.8983 12.4527 4.62589 12.4527H9.99664Z" fill="white"/>
<path fill-rule="evenodd" clip-rule="evenodd" d="M3.73077 6.86925C3.73077 4.97218 5.33394 3.43408 7.31127 3.43408C9.28861 3.43408 10.8918 4.97218 10.8918 6.86925C10.8918 8.76632 9.28861 10.3044 7.31127 10.3044C5.33394 10.3044 3.73077 8.76632 3.73077 6.86925ZM5.07372 6.8694C5.07372 8.05281 6.07805 9.01637 7.31154 9.01637C8.54502 9.01637 9.54935 8.05281 9.54935 6.8694C9.54935 5.68512 8.54502 4.72242 7.31154 4.72242C6.07805 4.72242 5.07372 5.68512 5.07372 6.8694Z" fill="white"/>
<ellipse cx="11.1599" cy="3.17746" rx="0.477102" ry="0.457736" fill="white"/>
</svg>
