<svg width="12" height="12" viewBox="0 0 12 12" fill="none" xmlns="http://www.w3.org/2000/svg">
<rect width="12" height="12" fill="#F5F5F5"/>
<g id="webKaryawan_absensiPage">
<rect width="1280" height="720" transform="translate(-1027 -676)" fill="white"/>
<g id="Footer">
<rect id="Rectangle" x="-1027" y="-60" width="1280" height="104" fill="#04A6FE"/>
<g id="Frame 373">
<g id="Social">
<g id="Linkedin Icon">
<g id="Group 14">
<path id="Shape" fill-rule="evenodd" clip-rule="evenodd" d="M2.86344 11.4506H0.472015V4.27637H2.86344V11.4506Z" fill="white"/>
<path id="Shape_2" fill-rule="evenodd" clip-rule="evenodd" d="M1.66062 2.68151H1.64703C0.933379 2.68151 0.472015 2.14983 0.472015 1.48536C0.472015 0.806841 0.94743 0.290039 1.67463 0.290039C2.40182 0.290039 2.84964 0.806841 2.86344 1.48536C2.86344 2.14983 2.40182 2.68151 1.66062 2.68151Z" fill="white"/>
<path id="Shape_3" fill-rule="evenodd" clip-rule="evenodd" d="M11.632 11.4505H9.28205V7.70037C9.28205 6.75843 8.94199 6.11568 8.09127 6.11568C7.44203 6.11568 7.05532 6.54899 6.88548 6.9675C6.82334 7.11749 6.80809 7.32647 6.80809 7.53596V11.4506H4.45779C4.45779 11.4506 4.48877 5.09888 4.45779 4.44115H6.80809V5.43398C7.11999 4.95671 7.67861 4.27637 8.92631 4.27637C10.4727 4.27637 11.6321 5.27841 11.6321 7.43143L11.632 11.4505Z" fill="white"/>
</g>
</g>
</g>
</g>
</g>
</g>
</svg>
