<svg width="16" height="14" viewBox="0 0 16 14" fill="none" xmlns="http://www.w3.org/2000/svg">
<path d="M15.15 2.07354C14.6174 2.32591 14.0499 2.49319 13.4582 2.57441C14.0669 2.18184 14.5315 1.56494 14.7499 0.821378C14.1824 1.18688 13.5558 1.44504 12.888 1.58912C12.3492 0.969318 11.5812 0.585449 10.7433 0.585449C9.11777 0.585449 7.8091 2.01069 7.8091 3.75792C7.8091 4.00932 7.82879 4.25105 7.87713 4.48118C5.43612 4.35258 3.27619 3.08881 1.82519 1.16367C1.57187 1.63843 1.42328 2.18184 1.42328 2.76683C1.42328 3.86525 1.94692 4.83894 2.72747 5.40266C2.25574 5.39299 1.79296 5.24505 1.4009 5.01202C1.4009 5.02169 1.4009 5.03426 1.4009 5.04683C1.4009 6.58811 2.41866 7.86831 3.75329 8.16322C3.51429 8.23381 3.25381 8.26765 2.98348 8.26765C2.7955 8.26765 2.60574 8.25605 2.42761 8.2135C2.80804 9.46954 3.88756 10.3929 5.17117 10.4229C4.17221 11.267 2.90381 11.7756 1.53069 11.7756C1.2899 11.7756 1.05896 11.764 0.828018 11.7321C2.12864 12.6381 3.67004 13.1554 5.33229 13.1554C10.7353 13.1554 13.6892 8.32083 13.6892 4.13019C13.6892 3.98998 13.6847 3.85461 13.6784 3.72021C14.2612 3.27349 14.7508 2.71558 15.15 2.07354Z" fill="white"/>
</svg>
